<svg width="108" height="102" viewBox="0 0 108 102" fill="none" xmlns="http://www.w3.org/2000/svg">
<rect width="108" height="102" rx="10" fill="#967EFF"/>
<path d="M14.534 12.128C16.426 11.2107 18.404 10.5513 20.468 10.15C22.532 9.74866 24.5673 9.66266 26.574 9.892C28.638 10.1213 30.616 10.666 32.508 11.526C34.4573 12.386 36.2347 13.59 37.84 15.138C39.1587 16.4567 40.3053 18.062 41.28 19.954C42.2547 21.7887 42.9713 23.5947 43.43 25.372C44.4047 28.5253 44.548 31.7073 43.86 34.918C43.172 38.1287 41.9967 41.11 40.334 43.862C39.5313 45.1233 38.528 46.27 37.324 47.302C36.1773 48.2767 34.9447 49.0793 33.626 49.71C31.906 50.5127 30.0427 51.0573 28.036 51.344C26.0293 51.688 24.08 51.774 22.188 51.602C18.748 51.43 15.7093 50.57 13.072 49.022C10.492 47.474 8.39933 45.496 6.794 43.088C5.246 40.68 4.214 37.9567 3.698 34.918C3.23933 31.822 3.44 28.6687 4.3 25.458C5.21733 22.018 6.536 19.2373 8.256 17.116C10.0333 14.9373 12.126 13.2747 14.534 12.128ZM17.114 23.652C16.254 24.4547 15.5947 25.458 15.136 26.662C14.6773 27.866 14.3907 29.1273 14.276 30.446C14.1613 31.7073 14.2473 32.9973 14.534 34.316C14.878 35.5773 15.394 36.724 16.082 37.756C16.6553 38.616 17.6873 39.3327 19.178 39.906C20.6687 40.4793 22.2167 40.8233 23.822 40.938C25.6567 41.0527 27.262 40.5653 28.638 39.476C30.014 38.3293 31.046 36.9247 31.734 35.262C32.4793 33.5993 32.8233 31.7933 32.766 29.844C32.7087 27.8947 32.1927 26.1173 31.218 24.512C30.53 23.3653 29.5553 22.534 28.294 22.018C27.09 21.4447 25.8 21.158 24.424 21.158C23.1053 21.1007 21.7867 21.3013 20.468 21.76C19.1493 22.1613 18.0313 22.792 17.114 23.652ZM62.2371 12.128C64.1291 11.2107 66.1071 10.5513 68.1711 10.15C70.2351 9.74866 72.2705 9.66266 74.2771 9.892C76.3411 10.1213 78.3191 10.666 80.2111 11.526C82.1605 12.386 83.9378 13.59 85.5431 15.138C86.8618 16.4567 88.0085 18.062 88.9831 19.954C89.9578 21.7887 90.6745 23.5947 91.1331 25.372C92.1078 28.5253 92.2511 31.7073 91.5631 34.918C90.8751 38.1287 89.6998 41.11 88.0371 43.862C87.2345 45.1233 86.2311 46.27 85.0271 47.302C83.8805 48.2767 82.6478 49.0793 81.3291 49.71C79.6091 50.5127 77.7458 51.0573 75.7391 51.344C73.7325 51.688 71.7831 51.774 69.8911 51.602C66.4511 51.43 63.4125 50.57 60.7751 49.022C58.1951 47.474 56.1025 45.496 54.4971 43.088C52.9491 40.68 51.9171 37.9567 51.4011 34.918C50.9425 31.822 51.1431 28.6687 52.0031 25.458C52.9205 22.018 54.2391 19.2373 55.9591 17.116C57.7365 14.9373 59.8291 13.2747 62.2371 12.128ZM64.8171 23.652C63.9571 24.4547 63.2978 25.458 62.8391 26.662C62.3805 27.866 62.0938 29.1273 61.9791 30.446C61.8645 31.7073 61.9505 32.9973 62.2371 34.316C62.5811 35.5773 63.0971 36.724 63.7851 37.756C64.3585 38.616 65.3905 39.3327 66.8811 39.906C68.3718 40.4793 69.9198 40.8233 71.5251 40.938C73.3598 41.0527 74.9651 40.5653 76.3411 39.476C77.7171 38.3293 78.7491 36.9247 79.4371 35.262C80.1825 33.5993 80.5265 31.7933 80.4691 29.844C80.4118 27.8947 79.8958 26.1173 78.9211 24.512C78.2331 23.3653 77.2585 22.534 75.9971 22.018C74.7931 21.4447 73.5031 21.158 72.1271 21.158C70.8085 21.1007 69.4898 21.3013 68.1711 21.76C66.8525 22.1613 65.7345 22.792 64.8171 23.652Z" fill="white"/>
</svg>
